<?xml version="1.0" encoding="utf-8"?>
<!-- Generator: Adobe Illustrator 27.4.1, SVG Export Plug-In . SVG Version: 6.00 Build 0)  -->
<svg version="1.1" id="Layer_1" xmlns="http://www.w3.org/2000/svg" xmlns:xlink="http://www.w3.org/1999/xlink" x="0px" y="0px"
	 viewBox="0 0 375 375" style="enable-background:new 0 0 375 375;" xml:space="preserve">
<style type="text/css">
	.st0{fill:#0F69A0;}
	.st1{fill:#FFFFFF;stroke:#1D2D5C;stroke-width:2;stroke-miterlimit:10;}
	.st2{fill:#FFFFFF;}
	.st3{fill:#1D2D5C;}
	.st4{fill:none;}
</style>
<path class="st0" d="M192.8,9.3L192.8,9.3L12.4,9.2v173.5c0,0.8,0,1.6,0,2.5s0,1.6,0,2.5v1.9h0c2.3,95.2,80.2,171.6,175.9,171.6
	s176-78.8,176-176S288,11.6,192.8,9.3z"/>
<circle class="st1" cx="188.4" cy="185.3" r="152.7"/>
<rect x="32.2" y="28" class="st2" width="37.1" height="37.1"/>
<polygon class="st3" points="60.8,56.1 58.3,53.1 55.8,56.1 55.8,37.5 60.8,37.5 "/>
<path class="st3" d="M62.8,34.6v23.9H38.8V34.6L62.8,34.6 M64.8,32.6H36.8v27.9h27.9V32.6L64.8,32.6z"/>
<polygon class="st3" points="48.8,37.5 42,37.5 42,39.5 48.8,39.5 48.8,37.5 "/>
<polygon class="st3" points="50,44.5 42,44.5 42,46.5 50,46.5 50,44.5 "/>
<polygon class="st3" points="52.4,49.5 42,49.5 42,51.6 52.4,51.6 52.4,49.5 "/>
<polygon class="st3" points="50.8,54.1 42,54.1 42,56.1 50.8,56.1 50.8,54.1 "/>
<rect class="st4" width="375" height="375"/>
<g>
	<g>
		<g>
			<path id="logoMark_PathItem__00000139265086723383308480000002590746808486167427_" class="st0" d="M185.7,271.1
				c-47.5-0.1-85.9-38.6-85.8-86c0-2,0.1-4,0.2-6c3-42.6,37.8-76.9,80.4-79.5c35.3-2.1,68.3,17.6,83.1,49.7c0.3,0.7,1.1,1.2,1.9,1.2
				h19.2c1.2,0,2.1-0.9,2.1-2.1c0-0.2,0-0.5-0.1-0.7c-15.9-42.8-57.2-70.9-102.8-70.2c-56.8,1-103.7,46.8-105.9,103.6
				c-2.3,59.5,44,109.6,103.5,111.9c46.5,1.8,88.9-26.4,105.2-70c0.4-1.1-0.2-2.3-1.3-2.7c-0.2-0.1-0.5-0.1-0.7-0.1h-19.3
				c-0.8,0-1.6,0.5-1.9,1.2C249.5,251.7,219.1,271.1,185.7,271.1z"/>
		</g>
	</g>
	<path class="st3" d="M128.9,209.1c5.7,0,11.2-2,15.6-6.2c0.4-0.4,0.5-1.3,0.1-1.7l-5-5.3c-0.4-0.4-1.2-0.4-1.7-0.1
		c-2.3,2-5.6,3.1-8.6,3.1c-7.2,0-12.6-5.9-12.6-13c0-7.2,5.3-13.2,12.5-13.2c3.1,0,6.3,1.2,8.6,3.3c0.4,0.4,1.2,0.4,1.6,0l5-5.2
		c0.5-0.5,0.5-1.3-0.1-1.8c-4.4-4-9.1-6-15.5-6c-12.8,0-23.1,10.3-23.1,23.1C105.8,199,116.1,209.1,128.9,209.1z"/>
	<path class="st3" d="M149.1,208.5h15.6c12.4,0,22.5-10,22.5-22.5c0-12.3-10.1-22.3-22.5-22.3h-15.6c-0.6,0-1.2,0.6-1.2,1.2v42.4
		C147.9,207.9,148.4,208.5,149.1,208.5z M157.9,173.1h6.1c7.2,0,12.5,5.7,12.5,12.9c0,7.3-5.2,13-12.5,13h-6.1V173.1z"/>
	<path class="st3" d="M192,208.5h7.6c0.6,0,1.2-0.6,1.2-1.2v-15h6.7c7.8,0,14.3-6.5,14.3-14.4c0-7.7-6.5-14.1-14.3-14.1H192
		c-0.7,0-1.2,0.6-1.2,1.2v42.4C190.8,207.9,191.3,208.5,192,208.5z M200.8,173.1h6.1c2.8,0,5.1,2,5.1,4.7c0,2.9-2.3,5.1-5.1,5.1
		h-6.1V173.1z"/>
	<path class="st3" d="M237,189.9c4.4,1.7,6.6,3.8,6.6,6.5c0,2.2-1.9,3.8-4.4,3.8c-4.2,0-8.8-3.4-9.1-3.5c-0.4-0.3-1.7-0.4-2.2,0.4
		l-3,5.3c-0.5,0.9-0.3,1.2,0.3,1.8c1.5,1.5,6.1,4.9,14.4,4.9c9.4,0,15.1-6.7,15.1-13.2c0-8.7-7.9-12.6-12.9-14.6c-5.1-2-7-3.8-7-6.2
		c0-1.7,1.7-3.3,4-3.3c3.9,0,8.6,3.5,9.2,3.8c0.6,0.4,1.7-0.1,2.2-0.8l3.3-4.9c0.3-0.4,0.4-1.6-0.4-2c-1.9-1.4-7-4.8-13.7-4.8
		c-9.9,0-14.8,6.4-14.8,12.7C224.5,183.5,231.5,187.8,237,189.9z"/>
	<path class="st3" d="M260.2,208.5h26.5c0.7,0,1.2-0.6,1.2-1.2v-7c0-0.6-0.5-1.2-1.2-1.2H269v-8.6h14.6c0.6,0,1.2-0.5,1.2-1.2v-7
		c0-0.6-0.6-1.2-1.2-1.2H269v-7.9h17.7c0.7,0,1.2-0.6,1.2-1.2v-7c0-0.6-0.5-1.2-1.2-1.2h-26.5c-0.7,0-1.2,0.6-1.2,1.2v42.4
		C259,207.9,259.5,208.5,260.2,208.5z"/>
	<path class="st3" d="M295,209.4c2.1,0,3.9-1.7,3.9-3.8c0-2.1-1.7-3.9-3.9-3.9c-2.1,0-3.8,1.7-3.8,3.9
		C291.2,207.7,292.9,209.4,295,209.4z M295,202.3c1.8,0,3.2,1.4,3.2,3.2c0,1.8-1.4,3.2-3.2,3.2c-1.8,0-3.2-1.4-3.2-3.2
		C291.8,203.8,293.3,202.3,295,202.3z"/>
	<path class="st3" d="M293.9,207.5h0.3c0.1,0,0.2-0.1,0.2-0.2V206h0.8l0.6,1.3c0,0.1,0.1,0.2,0.2,0.2h0.4c0.2,0,0.3-0.2,0.2-0.3
		c-0.2-0.4-0.4-0.8-0.6-1.3c0.3-0.1,0.9-0.4,0.9-1.2c0-0.8-0.7-1.2-1.3-1.2h-1.5c-0.1,0-0.2,0.1-0.2,0.2v3.5
		C293.7,207.4,293.8,207.5,293.9,207.5z M294.4,204.2h1.1c0.4,0,0.6,0.2,0.6,0.6c0,0.3-0.2,0.6-0.6,0.6h-1.1V204.2z"/>
</g>
</svg>
