<?xml version="1.0" encoding="UTF-8"?>
<svg id="Layer_1" data-name="Layer 1" xmlns="http://www.w3.org/2000/svg" viewBox="0 0 375 375">
  <defs>
    <style>
      .cls-1 {
        fill: none;
      }

      .cls-2, .cls-3 {
        fill: #fff;
      }

      .cls-4 {
        fill: #1d2d5c;
      }

      .cls-3 {
        stroke: #1d2d5c;
        stroke-miterlimit: 10;
        stroke-width: 2px;
      }
    </style>
  </defs>
  <path d="m192.79,9.31v-.06H12.41v173.53c-.01.82-.03,1.64-.03,2.47s.02,1.65.03,2.47v1.91h.02c2.33,95.18,80.21,171.62,175.94,171.62s176-78.8,176-176S287.96,11.65,192.79,9.31Z"/>
  <rect class="cls-2" x="32.24" y="27.99" width="37.07" height="37.07"/>
  <circle class="cls-3" cx="188.38" cy="185.26" r="152.7"/>
  <polygon class="cls-4" points="60.75 56.11 58.29 53.11 55.82 56.11 55.82 37.5 60.75 37.5 60.75 56.11"/>
  <path class="cls-4" d="m62.75,34.56v23.94h-23.94v-23.94h23.94m2-2h-27.94v27.94h27.94v-27.94h0Z"/>
  <polygon class="cls-4" points="48.84 37.5 42.05 37.5 42.05 39.54 48.84 39.54 48.84 37.5 48.84 37.5"/>
  <polygon class="cls-4" points="49.96 44.49 42.05 44.49 42.05 46.53 49.96 46.53 49.96 44.49 49.96 44.49"/>
  <polygon class="cls-4" points="52.38 49.51 42.05 49.51 42.05 51.56 52.38 51.56 52.38 49.51 52.38 49.51"/>
  <polygon class="cls-4" points="50.8 54.07 42.05 54.07 42.05 56.11 50.8 56.11 50.8 54.07 50.8 54.07"/>
  <path d="m190.62,274.45c-50.84,0-91.79-43.15-88.14-94.75,3.1-43.86,38.87-79.21,82.76-81.83,37.76-2.25,70.83,19.37,85.57,51.15.36.77,1.11,1.26,1.96,1.26h19.81c1.51,0,2.58-1.51,2.06-2.92-15.92-42.75-57.4-73.05-105.88-72.26-58.49.96-106.81,48.18-109.04,106.63-2.41,63.28,48.17,115.33,110.91,115.33,47.64,0,88.23-30.02,103.97-72.17.53-1.41-.55-2.92-2.06-2.92h-19.82c-.84,0-1.6.49-1.95,1.26-14.06,30.21-44.69,51.21-80.15,51.21Z"/>
  <g>
    <polygon points="133.51 201.53 118.57 194.98 110.72 197.67 133.51 207.66 155.76 198.22 147.93 195.41 133.51 201.53"/>
    <polygon points="138.08 191.89 133.51 193.83 128.44 191.6 118.57 187.28 110.72 189.97 120.58 194.29 133.51 199.96 145.92 194.7 155.76 190.52 147.93 187.71 138.08 191.89"/>
    <polygon points="138.08 184.19 133.51 186.13 128.44 183.9 118.57 179.58 110.72 182.27 120.58 186.59 130.45 190.92 133.51 192.26 136.08 191.17 145.92 186.99 155.76 182.82 147.93 180.01 138.08 184.19"/>
    <polygon points="130.45 183.21 133.51 184.56 136.08 183.47 145.92 179.29 155.76 175.11 132.96 166.95 110.72 174.56 120.58 178.89 130.45 183.21"/>
  </g>
  <g>
    <path class="cls-4" d="m190.24,160.69c7.38,0,12.84,2.29,17.86,6.86.66.59.66,1.48.07,2.07l-5.76,5.98c-.52.52-1.33.52-1.85,0-2.73-2.44-6.35-3.76-9.97-3.76-8.34,0-14.47,6.94-14.47,15.21s6.2,14.98,14.54,14.98c3.47,0,7.23-1.25,9.89-3.54.52-.44,1.48-.44,1.92.07l5.76,6.13c.52.52.44,1.48-.07,1.99-5.02,4.87-11.37,7.16-17.94,7.16-14.76,0-26.65-11.74-26.65-26.5s11.88-26.65,26.65-26.65Z"/>
    <path class="cls-4" d="m217.03,162.84c0-.74.59-1.4,1.4-1.4h30.56c.81,0,1.4.66,1.4,1.4v8.05c0,.74-.59,1.4-1.4,1.4h-20.45v9.15h16.83c.74,0,1.4.66,1.4,1.4v8.05c0,.81-.66,1.4-1.4,1.4h-16.83v9.97h20.45c.81,0,1.4.66,1.4,1.4v8.05c0,.74-.59,1.4-1.4,1.4h-30.56c-.81,0-1.4-.66-1.4-1.4v-48.87Z"/>
    <path class="cls-4" d="m269.88,172.28h-10.56c-.81,0-1.4-.66-1.4-1.4v-8.05c0-.74.59-1.4,1.4-1.4h32.77c.81,0,1.4.66,1.4,1.4v8.05c0,.74-.59,1.4-1.4,1.4h-10.56v39.42c0,.74-.66,1.4-1.4,1.4h-8.86c-.74,0-1.4-.66-1.4-1.4v-39.42Z"/>
  </g>
  <g>
    <path id="logoMark_CompoundPathItem_" data-name="logoMark &amp;lt;CompoundPathItem&amp;gt;" class="cls-4" d="m287.62,209.04h-1.08c-.07,0-.13-.06-.13-.13v-.37c0-.07.05-.13.13-.13h2.85c.07,0,.13.06.13.13v.37c0,.07-.05.13-.13.13h-1.08v3.89c0,.07-.06.13-.13.13h-.44c-.07,0-.13-.06-.13-.13v-3.89Z"/>
    <path id="logoMark_CompoundPathItem_-2" data-name="logoMark &amp;lt;CompoundPathItem&amp;gt;" class="cls-4" d="m290.75,208.45c.01-.05.07-.1.12-.1h.11s.1.03.11.07l1.39,3.39h.03l1.38-3.39s.07-.07.11-.07h.11c.05,0,.11.05.12.1l.82,4.46c.02.09-.03.15-.12.15h-.43c-.06,0-.11-.05-.13-.09l-.49-2.97h-.02l-1.19,3.05s-.05.07-.11.07h-.12c-.05,0-.1-.03-.11-.07l-1.2-3.05h-.03l-.48,2.97s-.07.09-.12.09h-.43c-.09,0-.14-.06-.13-.15l.82-4.46Z"/>
  </g>
  <rect class="cls-1" width="375" height="375"/>
</svg>