<?xml version="1.0" encoding="UTF-8"?>
<svg id="Layer_1" data-name="Layer 1" xmlns="http://www.w3.org/2000/svg" xmlns:xlink="http://www.w3.org/1999/xlink" viewBox="0 0 375 375">
  <defs>
    <style>
      .cls-1 {
        fill: none;
      }

      .cls-2, .cls-3 {
        fill: #fff;
      }

      .cls-4 {
        fill: #00a4e4;
      }

      .cls-5 {
        fill: #1d2d5c;
      }

      .cls-3 {
        stroke: #1d2d5c;
        stroke-miterlimit: 10;
        stroke-width: 2px;
      }
    </style>
  </defs>
  <path class="cls-4" d="m192.79,9.31v-.06H12.41v173.53c-.01.82-.03,1.64-.03,2.47s.02,1.65.03,2.47v1.91h.02c2.33,95.18,80.21,171.62,175.94,171.62s176-78.8,176-176S287.96,11.65,192.79,9.31Z"/>
  <rect class="cls-2" x="32.24" y="27.99" width="37.07" height="37.07"/>
  <circle class="cls-3" cx="188.38" cy="185.26" r="152.7"/>
  <polygon class="cls-5" points="60.75 56.11 58.29 53.11 55.82 56.11 55.82 37.5 60.75 37.5 60.75 56.11"/>
  <path id="logoMark_CompoundPathItem_" data-name="logoMark &amp;lt;CompoundPathItem&amp;gt;" class="cls-5" d="m290.54,200.85c2.1,0,3.82,1.72,3.82,3.82s-1.72,3.81-3.82,3.81-3.81-1.71-3.81-3.81,1.71-3.82,3.81-3.82Zm0,7c1.76,0,3.17-1.42,3.17-3.17s-1.41-3.17-3.17-3.17-3.17,1.41-3.17,3.17,1.42,3.17,3.17,3.17Zm-1.33-4.93c0-.11.08-.2.2-.2h1.51c.66,0,1.31.39,1.31,1.19s-.56,1.08-.86,1.16c.21.41.42.84.64,1.25.07.13-.03.29-.18.29h-.36c-.08,0-.16-.08-.19-.15l-.59-1.33h-.79v1.27c0,.11-.08.2-.2.2h-.28c-.12,0-.2-.1-.2-.2v-3.48Zm1.71,1.59c.39,0,.64-.28.64-.61,0-.36-.24-.6-.64-.6h-1.04v1.21h1.04Z"/>
  <path id="logoMark_CompoundPathItem_-2" data-name="logoMark &amp;lt;CompoundPathItem&amp;gt;" class="cls-5" d="m140.9,162.2c6.42,0,11.16,1.99,15.53,5.97.58.51.58,1.28.06,1.8l-5,5.2c-.45.45-1.15.45-1.6,0-2.37-2.12-5.52-3.27-8.66-3.27-7.25,0-12.57,6.03-12.57,13.22s5.39,13.02,12.64,13.02c3.01,0,6.29-1.09,8.6-3.08.45-.39,1.28-.39,1.67.06l5,5.33c.45.45.39,1.28-.06,1.73-4.36,4.23-9.88,6.22-15.59,6.22-12.83,0-23.16-10.2-23.16-23.03s10.33-23.16,23.16-23.16Z"/>
  <path id="logoMark_CompoundPathItem_-3" data-name="logoMark &amp;lt;CompoundPathItem&amp;gt;" class="cls-5" d="m183.82,162.26c5.39,0,11.29,2.25,15.65,6.03.58.45.64,1.22.13,1.73l-5.07,5.39c-.51.45-1.22.45-1.73.06-2.44-2.25-5.26-3.08-8.4-3.08-6.99,0-12.64,5.9-12.64,12.96s5.71,12.77,12.7,12.77c1.86,0,3.78-.26,5.71-1.03v-3.72h-4.04c-.71,0-1.22-.51-1.22-1.15v-6.35c0-.71.51-1.22,1.22-1.22h12.89c.64,0,1.16.58,1.16,1.22l.06,17.26c0,.32-.26.83-.51,1.03,0,0-6.61,4.17-15.91,4.17-12.77,0-23.03-10.14-23.03-22.97s10.27-23.1,23.03-23.1Z"/>
  <path id="logoMark_CompoundPathItem_-4" data-name="logoMark &amp;lt;CompoundPathItem&amp;gt;" class="cls-5" d="m209.03,164.06c0-.64.51-1.22,1.22-1.22h26.56c.71,0,1.22.58,1.22,1.22v6.99c0,.64-.51,1.22-1.22,1.22h-17.77v7.96h14.63c.64,0,1.22.58,1.22,1.22v6.99c0,.71-.58,1.22-1.22,1.22h-14.63v8.66h17.77c.71,0,1.22.58,1.22,1.22v6.99c0,.64-.51,1.22-1.22,1.22h-26.56c-.71,0-1.22-.58-1.22-1.22v-42.47Z"/>
  <path id="logoMark_CompoundPathItem_-5" data-name="logoMark &amp;lt;CompoundPathItem&amp;gt;" class="cls-5" d="m246.63,164.06c0-.64.58-1.22,1.22-1.22h7.7c.64,0,1.22.58,1.22,1.22v42.47c0,.64-.58,1.22-1.22,1.22h-7.7c-.64,0-1.22-.58-1.22-1.22v-42.47Z"/>
  <path id="logoMark_CompoundPathItem_-6" data-name="logoMark &amp;lt;CompoundPathItem&amp;gt;" class="cls-5" d="m273.57,172.27h-9.17c-.71,0-1.22-.58-1.22-1.22v-6.99c0-.64.51-1.22,1.22-1.22h28.48c.71,0,1.22.58,1.22,1.22v6.99c0,.64-.51,1.22-1.22,1.22h-9.17v34.26c0,.64-.58,1.22-1.22,1.22h-7.7c-.64,0-1.22-.58-1.22-1.22v-34.26Z"/>
  <path class="cls-5" d="m62.75,34.56v23.94h-23.94v-23.94h23.94m2-2h-27.94v27.94h27.94v-27.94h0Z"/>
  <polygon class="cls-5" points="48.84 37.5 42.05 37.5 42.05 39.54 48.84 39.54 48.84 37.5 48.84 37.5"/>
  <polygon class="cls-5" points="49.96 44.49 42.05 44.49 42.05 46.53 49.96 46.53 49.96 44.49 49.96 44.49"/>
  <polygon class="cls-5" points="52.38 49.51 42.05 49.51 42.05 51.56 52.38 51.56 52.38 49.51 52.38 49.51"/>
  <polygon class="cls-5" points="50.8 54.07 42.05 54.07 42.05 56.11 50.8 56.11 50.8 54.07 50.8 54.07"/>
  <a xlink:href="52.0549019607843">
    <path id="logoMark_PathItem_" data-name="logoMark &amp;lt;PathItem&amp;gt;" class="cls-4" d="m190.2,271.09c-49.38,0-89.15-41.91-85.61-92.02,3.01-42.6,37.75-76.94,80.38-79.48,36.67-2.19,68.79,18.81,83.11,49.68.35.74,1.08,1.23,1.9,1.23h19.24c1.46,0,2.51-1.46,2-2.83-15.46-41.52-55.75-70.95-102.84-70.18-56.81.93-103.74,46.8-105.91,103.57-2.34,61.46,46.78,112.02,107.72,112.02,46.27,0,85.7-29.16,100.99-70.09.51-1.37-.53-2.84-2-2.84h-19.25c-.82,0-1.55.48-1.9,1.22-13.66,29.34-43.4,49.74-77.84,49.74Z"/>
  </a>
  <rect class="cls-1" width="375" height="375"/>
</svg>