<?xml version="1.0" encoding="UTF-8"?>
<svg id="Layer_1" data-name="Layer 1" xmlns="http://www.w3.org/2000/svg" xmlns:xlink="http://www.w3.org/1999/xlink" viewBox="0 0 375 375">
  <defs>
    <style>
      .cls-1 {
        fill: none;
      }

      .cls-2, .cls-3 {
        fill: #fff;
      }

      .cls-4 {
        fill: #1d2d5c;
      }

      .cls-5 {
        fill: #36ac91;
      }

      .cls-3 {
        stroke: #1d2d5c;
        stroke-miterlimit: 10;
        stroke-width: 2px;
      }
    </style>
  </defs>
  <path class="cls-5" d="m192.79,9.31v-.06H12.41v173.53c-.01.82-.03,1.64-.03,2.47s.02,1.65.03,2.47v1.91h.02c2.33,95.18,80.21,171.62,175.94,171.62s176-78.8,176-176S287.96,11.65,192.79,9.31Z"/>
  <rect class="cls-2" x="32.24" y="27.99" width="37.07" height="37.07"/>
  <circle class="cls-3" cx="188.38" cy="185.26" r="152.7"/>
  <polygon class="cls-4" points="60.75 56.11 58.29 53.11 55.82 56.11 55.82 37.5 60.75 37.5 60.75 56.11"/>
  <path id="logoMark_CompoundPathItem_" data-name="logoMark &amp;lt;CompoundPathItem&amp;gt;" class="cls-4" d="m144.5,162.19c6.42,0,11.16,1.99,15.53,5.97.58.51.58,1.28.06,1.8l-5,5.2c-.45.45-1.15.45-1.6,0-2.37-2.12-5.52-3.27-8.66-3.27-7.25,0-12.57,6.03-12.57,13.22s5.39,13.02,12.64,13.02c3.02,0,6.29-1.09,8.6-3.08.45-.39,1.28-.39,1.67.06l5,5.33c.45.45.39,1.28-.06,1.73-4.36,4.23-9.88,6.22-15.59,6.22-12.83,0-23.16-10.2-23.16-23.03s10.33-23.16,23.16-23.16Z"/>
  <path id="logoMark_CompoundPathItem_-2" data-name="logoMark &amp;lt;CompoundPathItem&amp;gt;" class="cls-4" d="m165.22,201.64l3.02-5.33c.51-.83,1.73-.71,2.18-.38.26.13,4.88,3.53,9.11,3.53,2.57,0,4.43-1.6,4.43-3.85,0-2.69-2.25-4.75-6.61-6.48-5.52-2.18-12.45-6.48-12.45-14.18,0-6.35,4.94-12.77,14.82-12.77,6.67,0,11.8,3.4,13.73,4.81.77.45.64,1.6.38,2.05l-3.27,4.94c-.45.71-1.6,1.28-2.18.83-.58-.32-5.26-3.85-9.17-3.85-2.31,0-4.04,1.54-4.04,3.27,0,2.37,1.92,4.17,6.99,6.22,5,1.99,12.96,5.9,12.96,14.63,0,6.61-5.71,13.28-15.14,13.28-8.34,0-12.96-3.46-14.44-4.94-.64-.64-.83-.9-.32-1.8Z"/>
  <path id="logoMark_CompoundPathItem_-3" data-name="logoMark &amp;lt;CompoundPathItem&amp;gt;" class="cls-4" d="m212.44,184.7l-12.96-20.08c-.51-.83,0-1.8,1.09-1.8h9.37c.45,0,.83.32,1.03.58l7.38,11.93h.06l7.51-11.93c.13-.26.58-.58,1.03-.58h9.37c1.09,0,1.67.96,1.09,1.8l-13.02,20.08,13.47,21.24c.58.9,0,1.8-1.03,1.8h-8.92c-.39,0-.9-.26-1.09-.58l-8.4-12.96h-.13l-8.21,12.96c-.19.26-.58.58-1.09.58h-8.92c-1.09,0-1.67-.96-1.09-1.8l13.47-21.24Z"/>
  <path id="logoMark_CompoundPathItem_-4" data-name="logoMark &amp;lt;CompoundPathItem&amp;gt;" class="cls-4" d="m238.5,189.39v-5.84c0-.71.51-1.22,1.22-1.22h14.69c.71,0,1.22.51,1.22,1.22v5.84c0,.64-.51,1.15-1.22,1.15h-14.69c-.71,0-1.22-.51-1.22-1.15Z"/>
  <path id="logoMark_CompoundPathItem_-5" data-name="logoMark &amp;lt;CompoundPathItem&amp;gt;" class="cls-4" d="m262.49,164.05c0-.64.51-1.22,1.22-1.22h15.46c7.89,0,14.37,6.42,14.37,14.18s-6.48,14.43-14.31,14.43h-6.74v15.08c0,.64-.58,1.22-1.22,1.22h-7.57c-.71,0-1.22-.58-1.22-1.22v-42.47Zm16.1,18.03c2.76,0,5.07-2.18,5.07-5.07,0-2.69-2.31-4.75-5.07-4.75h-6.09v9.82h6.09Z"/>
  <path id="logoMark_CompoundPathItem_-6" data-name="logoMark &amp;lt;CompoundPathItem&amp;gt;" class="cls-4" d="m278.35,200.61c2,0,3.63,1.63,3.63,3.63s-1.63,3.62-3.63,3.62-3.62-1.62-3.62-3.62,1.62-3.63,3.62-3.63Zm0,6.65c1.67,0,3.02-1.35,3.02-3.02s-1.34-3.02-3.02-3.02-3.02,1.34-3.02,3.02,1.35,3.02,3.02,3.02Zm-1.26-4.68c0-.1.08-.19.19-.19h1.43c.63,0,1.24.37,1.24,1.13s-.53,1.03-.82,1.1c.2.39.4.8.61,1.19.07.12-.03.27-.17.27h-.34c-.08,0-.15-.08-.18-.14l-.57-1.26h-.75v1.21c0,.1-.08.19-.19.19h-.26c-.11,0-.19-.09-.19-.19v-3.31Zm1.62,1.51c.37,0,.61-.26.61-.58,0-.34-.23-.57-.61-.57h-.99v1.15h.99Z"/>
  <path class="cls-4" d="m62.75,34.56v23.94h-23.94v-23.94h23.94m2-2h-27.94v27.94h27.94v-27.94h0Z"/>
  <polygon class="cls-4" points="48.84 37.5 42.05 37.5 42.05 39.54 48.84 39.54 48.84 37.5 48.84 37.5"/>
  <polygon class="cls-4" points="49.96 44.49 42.05 44.49 42.05 46.53 49.96 46.53 49.96 44.49 49.96 44.49"/>
  <polygon class="cls-4" points="52.38 49.51 42.05 49.51 42.05 51.56 52.38 51.56 52.38 49.51 52.38 49.51"/>
  <polygon class="cls-4" points="50.8 54.07 42.05 54.07 42.05 56.11 50.8 56.11 50.8 54.07 50.8 54.07"/>
  <a xlink:href="31.91191">
    <path id="logoMark_PathItem_" data-name="logoMark &amp;lt;PathItem&amp;gt;" class="cls-5" d="m191.02,271.09c-49.38,0-89.15-41.91-85.61-92.02,3.01-42.6,37.75-76.94,80.38-79.48,36.67-2.19,68.79,18.81,83.11,49.68.35.74,1.08,1.23,1.9,1.23h19.24c1.46,0,2.51-1.46,2-2.83-15.46-41.52-55.75-70.95-102.84-70.18-56.81.93-103.74,46.8-105.91,103.57-2.34,61.46,46.78,112.02,107.72,112.02,46.27,0,85.7-29.16,100.99-70.09.51-1.37-.53-2.84-2-2.84h-19.25c-.82,0-1.55.48-1.9,1.22-13.66,29.34-43.4,49.74-77.84,49.74Z"/>
  </a>
  <rect class="cls-1" width="375" height="375"/>
</svg>