<?xml version="1.0" encoding="UTF-8"?>
<svg id="Layer_1" data-name="Layer 1" xmlns="http://www.w3.org/2000/svg" viewBox="0 0 375 375">
  <defs>
    <style>
      .cls-1 {
        fill: none;
      }

      .cls-2, .cls-3 {
        fill: #fff;
      }

      .cls-4 {
        fill: #6558b1;
      }

      .cls-5 {
        fill: #1d2d5c;
      }

      .cls-3 {
        stroke: #1d2d5c;
        stroke-miterlimit: 10;
        stroke-width: 2px;
      }
    </style>
  </defs>
  <path class="cls-4" d="m192.79,9.31v-.06H12.41v173.53c-.01.82-.03,1.64-.03,2.47s.02,1.65.03,2.47v1.91h.02c2.33,95.18,80.21,171.62,175.94,171.62s176-78.8,176-176S287.96,11.65,192.79,9.31Z"/>
  <rect class="cls-2" x="32.24" y="27.99" width="37.07" height="37.07"/>
  <circle class="cls-3" cx="188.38" cy="185.26" r="152.7"/>
  <g>
    <path class="cls-5" d="m164.46,164.95c0-.59.53-1.13,1.13-1.13h7.12c.59,0,1.13.53,1.13,1.13v39.26c0,.59-.53,1.13-1.13,1.13h-7.12c-.59,0-1.13-.53-1.13-1.13v-39.26Z"/>
    <path class="cls-5" d="m191.74,172.54h-8.48c-.65,0-1.13-.53-1.13-1.13v-6.46c0-.59.47-1.13,1.13-1.13h26.33c.65,0,1.13.53,1.13,1.13v6.46c0,.59-.47,1.13-1.13,1.13h-8.48v31.67c0,.59-.53,1.13-1.13,1.13h-7.12c-.59,0-1.13-.53-1.13-1.13v-31.67Z"/>
    <path class="cls-5" d="m234.79,163.23c5.93,0,10.32,1.84,14.35,5.52.53.47.53,1.19.06,1.66l-4.63,4.8c-.42.42-1.07.42-1.48,0-2.19-1.96-5.1-3.02-8.01-3.02-6.7,0-11.62,5.57-11.62,12.22s4.98,12.04,11.68,12.04c2.79,0,5.81-1.01,7.95-2.85.42-.36,1.19-.36,1.54.06l4.63,4.92c.42.42.36,1.19-.06,1.6-4.03,3.91-9.13,5.75-14.41,5.75-11.86,0-21.41-9.43-21.41-21.29s9.55-21.41,21.41-21.41Z"/>
    <path class="cls-5" d="m250.98,203.79l18.56-39.91c.18-.36.59-.65,1.01-.65h.59c.42,0,.83.3,1.01.65l18.56,39.91c.36.77-.12,1.54-1.01,1.54h-6.58c-1.07,0-1.54-.36-2.08-1.48l-2.13-4.68h-16.13l-2.13,4.74c-.3.71-.95,1.42-2.13,1.42h-6.52c-.89,0-1.36-.77-1.01-1.54Zm24.37-12.69l-4.51-9.78h-.06l-4.45,9.78h9.01Z"/>
  </g>
  <g>
    <path id="logoMark_CompoundPathItem_" data-name="logoMark &amp;lt;CompoundPathItem&amp;gt;" class="cls-5" d="m294.71,201.5h-1.05c-.07,0-.12-.06-.12-.12v-.36c0-.07.05-.12.12-.12h2.77c.07,0,.12.06.12.12v.36c0,.06-.05.12-.12.12h-1.05v3.78c0,.07-.06.12-.12.12h-.43c-.06,0-.12-.06-.12-.12v-3.78Z"/>
    <path id="logoMark_CompoundPathItem_-2" data-name="logoMark &amp;lt;CompoundPathItem&amp;gt;" class="cls-5" d="m297.75,200.92c.01-.05.07-.1.12-.1h.1s.1.03.11.07l1.35,3.29h.03l1.34-3.29s.07-.07.11-.07h.1c.05,0,.1.04.12.1l.79,4.33c.02.09-.03.15-.12.15h-.42c-.06,0-.11-.05-.12-.09l-.48-2.88h-.02l-1.16,2.96s-.05.07-.11.07h-.12c-.05,0-.1-.03-.11-.07l-1.17-2.96h-.03l-.46,2.88s-.07.09-.12.09h-.42c-.09,0-.13-.06-.12-.15l.8-4.33Z"/>
  </g>
  <polygon class="cls-5" points="60.75 56.11 58.29 53.11 55.82 56.11 55.82 37.5 60.75 37.5 60.75 56.11"/>
  <path class="cls-5" d="m62.75,34.56v23.94h-23.94v-23.94h23.94m2-2h-27.94v27.94h27.94v-27.94h0Z"/>
  <polygon class="cls-5" points="48.84 37.5 42.05 37.5 42.05 39.54 48.84 39.54 48.84 37.5 48.84 37.5"/>
  <polygon class="cls-5" points="49.96 44.49 42.05 44.49 42.05 46.53 49.96 46.53 49.96 44.49 49.96 44.49"/>
  <polygon class="cls-5" points="52.38 49.51 42.05 49.51 42.05 51.55 52.38 51.55 52.38 49.51 52.38 49.51"/>
  <polygon class="cls-5" points="50.8 54.07 42.05 54.07 42.05 56.11 50.8 56.11 50.8 54.07 50.8 54.07"/>
  <path class="cls-4" d="m189.41,270.01c-49.33,0-89.07-41.87-85.53-91.94,3-42.56,37.72-76.87,80.31-79.41,36.64-2.18,68.73,18.79,83.04,49.63.35.74,1.08,1.22,1.9,1.22h19.22c1.46,0,2.51-1.46,2-2.83-15.45-41.48-55.7-70.89-102.75-70.12-56.76.93-103.65,46.75-105.81,103.48-2.34,61.4,46.74,111.92,107.62,111.92,46.23,0,85.62-29.13,100.9-70.03.51-1.37-.53-2.83-2-2.83h-19.23c-.82,0-1.55.48-1.9,1.22-13.65,29.31-43.36,49.7-77.77,49.7Z"/>
  <g>
    <polygon class="cls-4" points="134.25 210.2 112.1 200.51 119.65 197.92 134.33 204.27 148.33 198.33 155.85 201.01 134.25 210.2"/>
    <polygon class="cls-4" points="134.3 202.73 112.15 193.04 119.59 190.49 134.33 196.85 148.39 190.86 155.9 193.55 134.3 202.73"/>
    <polygon class="cls-4" points="134.29 195.27 112.14 185.57 119.7 182.98 134.33 189.37 148.23 183.34 155.9 186.08 134.29 195.27"/>
    <polygon class="cls-4" points="134.29 187.8 112.14 178.1 119.56 175.56 134.22 181.84 148.36 175.92 155.89 178.61 134.29 187.8"/>
    <polygon class="cls-4" points="134.28 180.33 112.13 170.64 133.74 163.23 155.89 171.15 134.28 180.33"/>
  </g>
  <rect class="cls-1" width="375" height="375"/>
</svg>