<svg width="161" height="44" viewBox="0 0 161 44" fill="none" xmlns="http://www.w3.org/2000/svg">
<path d="M31.0122 20.1787C31.0122 20.1787 31.1428 20.3739 31.2899 20.5528C31.4369 20.7316 31.6492 21.0569 31.9433 21.5772C32.2373 22.0814 32.515 22.6343 32.76 23.2034C33.0051 23.7726 33.2338 24.5044 33.4135 25.3662C33.6095 26.2281 33.6912 27.1225 33.6912 28.0169C33.6912 29.7895 33.4625 31.3994 32.9887 32.8304C32.515 34.2615 31.8779 35.4323 31.0775 36.3104C30.2771 37.2048 29.3786 37.8878 28.3658 38.3594C27.353 38.831 26.2586 39.0749 25.0988 39.0749H8.50205C8.30602 39.0749 8.14267 39.0099 8.02832 38.8798C7.91397 38.7497 7.84863 38.5871 7.84863 38.3757V5.10404C7.84863 4.89264 7.89764 4.73002 8.02832 4.59993C8.159 4.46983 8.30602 4.40479 8.50205 4.40479H23.2692C24.478 4.40479 25.6052 4.63245 26.6506 5.10404C27.6961 5.57563 28.6272 6.24237 29.444 7.10424C30.2607 7.96612 30.8978 9.08818 31.3552 10.4704C31.8289 11.8527 32.0576 13.3813 32.0576 15.1051C32.0576 16.2109 31.9759 17.2028 31.7963 18.0484C31.6166 18.9103 31.4532 19.4795 31.2735 19.7722L31.0122 20.1787ZM17.0618 12.8284V17.2679C17.0618 17.4955 17.1761 17.6094 17.3885 17.6094H20.3452C20.9986 17.6094 21.5703 17.3492 22.0441 16.8451C22.5178 16.3409 22.7628 15.723 22.7628 15.0237C22.7628 14.3245 22.5178 13.7065 22.0441 13.2187C21.5703 12.7146 20.9986 12.4706 20.3452 12.4706H17.3885C17.1598 12.4706 17.0618 12.5845 17.0618 12.8121V12.8284ZM21.8154 31.0091C22.5014 31.0091 23.0568 30.7652 23.5306 30.2611C24.0043 29.7569 24.233 29.1552 24.233 28.456C24.233 27.7567 24.0043 27.1388 23.5306 26.6347C23.0568 26.1306 22.4851 25.8704 21.8154 25.8704H17.3885C17.1598 25.8704 17.0618 25.9842 17.0618 26.2119V30.6513C17.0618 30.879 17.1761 30.9928 17.3885 30.9928H21.8154V31.0091Z" fill="white"/>
<path d="M57.0039 27.1873C59.5685 30.2608 60.908 34.1636 61.0387 38.8958C61.0387 39.091 60.9897 39.2373 60.859 39.3837C60.7284 39.53 60.5813 39.5951 60.3853 39.5951H51.8909C51.7112 39.5951 51.5642 39.53 51.4499 39.3999C51.3355 39.2698 51.2702 39.1235 51.2702 38.9283C51.1558 36.1313 50.4861 33.9848 49.2609 32.4887C48.0195 31.0088 46.3206 30.1632 44.1643 30.0006V38.8796C44.1643 39.0747 44.099 39.2211 43.9683 39.3674C43.8376 39.5138 43.6906 39.5788 43.5109 39.5788H35.6046C35.4086 39.5788 35.2452 39.5138 35.1309 39.3674C35.0002 39.2373 34.9512 39.0747 34.9512 38.8796V5.1038C34.9512 4.89239 35.0002 4.72978 35.1309 4.59968C35.2615 4.46959 35.4086 4.40454 35.6046 4.40454H51.1558C52.5443 4.40454 53.8022 4.66473 54.962 5.16885C56.1218 5.67296 57.1509 6.43727 58.0494 7.4455C58.9478 8.45373 59.6502 9.75467 60.1403 11.3483C60.6303 12.942 60.8917 14.7796 60.8917 16.8286C60.8917 21.5282 59.6176 24.9757 57.0366 27.1873H57.0039ZM44.148 13.4136V20.7964C44.148 21.0078 44.246 21.1054 44.442 21.1054H48.2155C49.1793 21.1054 49.9797 20.7314 50.6168 19.9996C51.2539 19.2678 51.5806 18.3084 51.5806 17.0887C51.5806 15.8691 51.2539 14.9097 50.6168 14.1779C49.9797 13.4461 49.1629 13.0721 48.2155 13.0721H44.442C44.246 13.0721 44.148 13.1697 44.148 13.3811V13.4136Z" fill="white"/>
<path d="M62.9522 39.091C62.7562 39.091 62.5929 39.0259 62.4785 38.8958C62.3642 38.7657 62.2988 38.6031 62.2988 38.3917V5.1038C62.2988 4.8924 62.3478 4.72978 62.4785 4.59968C62.6092 4.46959 62.7562 4.40454 62.9522 4.40454H82.2116C82.3913 4.40454 82.5383 4.46959 82.669 4.59968C82.7997 4.72978 82.865 4.8924 82.865 5.1038V11.9988C82.865 12.1939 82.7997 12.3403 82.669 12.4867C82.5383 12.633 82.3913 12.6981 82.2116 12.6981H71.512V17.6254H80.7578C80.9375 17.6254 81.0845 17.6904 81.1988 17.8205C81.3295 17.9506 81.3785 18.1132 81.3785 18.2921V25.2197C81.3785 25.4148 81.3295 25.5611 81.1988 25.6912C81.0681 25.8213 80.9375 25.8864 80.7578 25.8864H71.512V30.8462H82.2116C82.3913 30.8462 82.5383 30.9113 82.669 31.0414C82.7997 31.1715 82.865 31.3178 82.865 31.513V38.408C82.865 38.6194 82.7997 38.782 82.669 38.9121C82.5383 39.0422 82.3913 39.1072 82.2116 39.1072H62.9522V39.091Z" fill="white"/>
<path d="M84.7784 39.091C84.5824 39.091 84.419 39.0259 84.3047 38.8958C84.1903 38.7657 84.125 38.6031 84.125 38.3917V5.1038C84.125 4.8924 84.174 4.72978 84.3047 4.59968C84.4354 4.46959 84.5824 4.40454 84.7784 4.40454H104.038C104.217 4.40454 104.365 4.46959 104.495 4.59968C104.626 4.72978 104.691 4.8924 104.691 5.1038V11.9988C104.691 12.1939 104.626 12.3403 104.495 12.4867C104.365 12.633 104.217 12.6981 104.038 12.6981H93.3381V17.6254H102.584C102.764 17.6254 102.911 17.6904 103.025 17.8205C103.156 17.9506 103.205 18.1132 103.205 18.2921V25.2197C103.205 25.4148 103.156 25.5611 103.025 25.6912C102.894 25.8213 102.764 25.8864 102.584 25.8864H93.3381V30.8462H104.038C104.217 30.8462 104.365 30.9113 104.495 31.0414C104.626 31.1715 104.691 31.3178 104.691 31.513V38.408C104.691 38.6194 104.626 38.782 104.495 38.9121C104.365 39.0422 104.217 39.1072 104.038 39.1072H84.7784V39.091Z" fill="white"/>
<path d="M130.912 38.3917C130.912 38.6031 130.846 38.7657 130.732 38.8958C130.601 39.0259 130.471 39.091 130.291 39.091H106.605C106.409 39.091 106.245 39.0259 106.131 38.8958C106.017 38.7657 105.951 38.6031 105.951 38.3917V37.7087C105.951 37.5949 105.968 37.481 106.017 37.3997L117.762 12.6981H106.605C106.409 12.6981 106.245 12.633 106.131 12.4867C106 12.3566 105.951 12.1939 105.951 11.9988V5.1038C105.951 4.89239 106 4.72978 106.131 4.59968C106.262 4.46959 106.409 4.40454 106.605 4.40454H130.258C130.438 4.40454 130.585 4.46959 130.716 4.59968C130.846 4.72978 130.912 4.89239 130.912 5.1038V5.80306C130.912 5.91689 130.895 6.03072 130.846 6.11203L119.101 30.7974H130.258C130.454 30.7974 130.618 30.8625 130.732 31.0088C130.863 31.1389 130.912 31.3016 130.912 31.4967V38.3917Z" fill="white"/>
<path d="M132.825 39.091C132.629 39.091 132.466 39.0259 132.352 38.8958C132.221 38.7657 132.172 38.6031 132.172 38.3917V5.1038C132.172 4.8924 132.221 4.72978 132.352 4.59968C132.482 4.46959 132.629 4.40454 132.825 4.40454H152.085C152.264 4.40454 152.411 4.46959 152.542 4.59968C152.673 4.72978 152.738 4.8924 152.738 5.1038V11.9988C152.738 12.1939 152.673 12.3403 152.542 12.4867C152.411 12.633 152.248 12.6981 152.085 12.6981H141.385V17.6254H150.631C150.811 17.6254 150.958 17.6904 151.072 17.8205C151.203 17.9506 151.252 18.1132 151.252 18.2921V25.2197C151.252 25.4148 151.186 25.5611 151.072 25.6912C150.941 25.8213 150.811 25.8864 150.631 25.8864H141.385V30.8462H152.085C152.264 30.8462 152.411 30.9113 152.542 31.0414C152.673 31.1715 152.738 31.3178 152.738 31.513V38.408C152.738 38.6194 152.673 38.782 152.542 38.9121C152.411 39.0422 152.248 39.1072 152.085 39.1072H132.825V39.091Z" fill="white"/>
</svg>
