<svg width="27" height="28" viewBox="0 0 27 28" fill="none" xmlns="http://www.w3.org/2000/svg">
<path fill-rule="evenodd" clip-rule="evenodd" d="M13.5 0.666626C6.13996 0.666626 0.166626 6.63996 0.166626 14C0.166626 21.36 6.13996 27.3333 13.5 27.3333C20.86 27.3333 26.8333 21.36 26.8333 14C26.8333 6.63996 20.86 0.666626 13.5 0.666626ZM6.92663 22.3733C7.49996 21.1733 10.9933 20 13.5 20C16.0066 20 19.5133 21.1733 20.0733 22.3733C18.26 23.8133 15.98 24.6666 13.5 24.6666C11.02 24.6666 8.73996 23.8133 6.92663 22.3733ZM13.5 17.3333C15.4466 17.3333 20.0733 18.12 21.98 20.44C23.34 18.6533 24.1666 16.4266 24.1666 14C24.1666 8.11996 19.38 3.33329 13.5 3.33329C7.61996 3.33329 2.83329 8.11996 2.83329 14C2.83329 16.4266 3.65996 18.6533 5.01996 20.44C6.92663 18.12 11.5533 17.3333 13.5 17.3333ZM13.5 5.99996C10.9133 5.99996 8.83329 8.07996 8.83329 10.6666C8.83329 13.2533 10.9133 15.3333 13.5 15.3333C16.0866 15.3333 18.1666 13.2533 18.1666 10.6666C18.1666 8.07996 16.0866 5.99996 13.5 5.99996ZM11.5 10.6666C11.5 11.7733 12.3933 12.6666 13.5 12.6666C14.6066 12.6666 15.5 11.7733 15.5 10.6666C15.5 9.55996 14.6066 8.66663 13.5 8.66663C12.3933 8.66663 11.5 9.55996 11.5 10.6666Z" fill="white" fill-opacity="0.93"/>
</svg>
